<svg width="48" height="48" viewBox="0 0 48 48" fill="none" xmlns="http://www.w3.org/2000/svg">
<circle cx="24" cy="23.9998" r="24" fill="#FEFEFE"/>
<path d="M14.2333 21.6331L17.7667 23.1331C18.1667 22.3331 18.5944 21.5442 19.05 20.7665C19.5056 19.9887 19.9889 19.2442 20.5 18.5331L17.8667 17.9998L14.2333 21.6331ZM19.3667 24.3331L23.8 28.7665C25.0667 28.1887 26.2556 27.5331 27.3667 26.7998C28.4778 26.0665 29.3778 25.3553 30.0667 24.6665C31.8667 22.8665 33.1889 21.022 34.0333 19.1331C34.8778 17.2442 35.3333 15.1109 35.4 12.7331C33.0222 12.7998 30.8889 13.2553 29 14.0998C27.1111 14.9442 25.2667 16.2665 23.4667 18.0665C22.7778 18.7553 22.0667 19.6553 21.3333 20.7665C20.6 21.8776 19.9444 23.0665 19.3667 24.3331ZM27 21.1331C26.5556 20.6887 26.3333 20.1387 26.3333 19.4831C26.3333 18.8276 26.5556 18.2776 27 17.8331C27.4444 17.3887 27.9944 17.1665 28.65 17.1665C29.3056 17.1665 29.8556 17.3887 30.3 17.8331C30.7444 18.2776 30.9667 18.8276 30.9667 19.4831C30.9667 20.1387 30.7444 20.6887 30.3 21.1331C29.8556 21.5776 29.3056 21.7998 28.65 21.7998C27.9944 21.7998 27.4444 21.5776 27 21.1331ZM26.5 33.8998L30.1333 30.2665L29.6 27.6331C28.8889 28.1442 28.1444 28.6276 27.3667 29.0831C26.5889 29.5387 25.8 29.9665 25 30.3665L26.5 33.8998ZM37.3667 10.7665C37.5667 13.7887 37.1889 16.5442 36.2333 19.0331C35.2778 21.522 33.7 23.8665 31.5 26.0665L31.4333 26.1331L31.3667 26.1998L32.1 29.8665C32.1667 30.1998 32.15 30.522 32.05 30.8331C31.95 31.1442 31.7778 31.422 31.5333 31.6665L25.8333 37.3998L23 30.7998L17.3333 25.1331L10.7333 22.2998L16.4667 16.5998C16.7111 16.3553 16.9889 16.1831 17.3 16.0831C17.6111 15.9831 17.9333 15.9665 18.2667 16.0331L21.9333 16.7665C21.9556 16.7442 21.9778 16.7276 22 16.7165C22.0222 16.7053 22.0444 16.6887 22.0667 16.6665C24.2667 14.4665 26.6111 12.8831 29.1 11.9165C31.5889 10.9498 34.3444 10.5665 37.3667 10.7665ZM12.9667 29.1665C13.7444 28.3887 14.6944 27.9942 15.8167 27.9831C16.9389 27.972 17.8889 28.3553 18.6667 29.1331C19.4444 29.9109 19.8278 30.8609 19.8167 31.9831C19.8056 33.1053 19.4111 34.0553 18.6333 34.8331C18.0556 35.4109 17.1611 35.8887 15.95 36.2665C14.7389 36.6442 12.9222 36.9998 10.5 37.3331C10.8333 34.9109 11.1833 33.0887 11.55 31.8665C11.9167 30.6442 12.3889 29.7442 12.9667 29.1665ZM14.3667 30.5998C14.0556 30.9331 13.7778 31.4553 13.5333 32.1665C13.2889 32.8776 13.0778 33.7887 12.9 34.8998C14.0111 34.722 14.9222 34.5109 15.6333 34.2665C16.3444 34.022 16.8667 33.7442 17.2 33.4331C17.6222 33.0553 17.8389 32.5831 17.85 32.0165C17.8611 31.4498 17.6667 30.9553 17.2667 30.5331C16.8444 30.1331 16.35 29.9387 15.7833 29.9498C15.2167 29.9609 14.7444 30.1776 14.3667 30.5998Z" fill="#7EB101"/>
</svg>
