<svg width="48" height="48" viewBox="0 0 48 48" fill="none" xmlns="http://www.w3.org/2000/svg">
<circle cx="24" cy="23.9998" r="24" fill="#FEFEFE"/>
<path d="M23.5 9.33307C25.5222 9.33307 27.25 10.0386 28.6833 11.4497C30.1167 12.8608 30.8333 14.5775 30.8333 16.5997C30.8333 17.7553 30.5833 18.8442 30.0833 19.8664C29.5833 20.8886 28.8778 21.7553 27.9667 22.4664H26.8333V20.7997C27.4778 20.2886 27.9722 19.6664 28.3167 18.9331C28.6611 18.1997 28.8333 17.422 28.8333 16.5997C28.8333 15.1331 28.3111 13.8886 27.2667 12.8664C26.2222 11.8442 24.9667 11.3331 23.5 11.3331C22.0333 11.3331 20.7778 11.8442 19.7333 12.8664C18.6889 13.8886 18.1667 15.1331 18.1667 16.5997C18.1667 17.422 18.3389 18.1997 18.6833 18.9331C19.0278 19.6664 19.5222 20.2886 20.1667 20.7997V23.1997C18.9222 22.5553 17.9445 21.6442 17.2333 20.4664C16.5222 19.2886 16.1667 17.9997 16.1667 16.5997C16.1667 14.5775 16.8833 12.8608 18.3167 11.4497C19.75 10.0386 21.4778 9.33307 23.5 9.33307ZM22.2333 37.3331C21.8556 37.3331 21.5 37.2608 21.1667 37.1164C20.8333 36.972 20.5445 36.7775 20.3 36.5331L13.4333 29.6664L15.3 27.7331C15.6111 27.422 15.9611 27.1831 16.35 27.0164C16.7389 26.8497 17.1445 26.822 17.5667 26.9331L20.1667 27.5331V16.6664C20.1667 15.7331 20.4889 14.9442 21.1333 14.2997C21.7778 13.6553 22.5667 13.3331 23.5 13.3331C24.4333 13.3331 25.2222 13.6553 25.8667 14.2997C26.5111 14.9442 26.8333 15.7331 26.8333 16.6664V22.3997H27.7C27.8111 22.3997 27.9111 22.422 28 22.4664C28.0889 22.5108 28.1889 22.5553 28.3 22.5997L33.2333 24.9997C33.7667 25.2442 34.1611 25.6386 34.4167 26.1831C34.6722 26.7275 34.7445 27.2886 34.6333 27.8664L33.4333 35.1331C33.3222 35.7775 33.0111 36.3053 32.5 36.7164C31.9889 37.1275 31.4111 37.3331 30.7667 37.3331H22.2333ZM21.9667 35.3331H31.3333L32.7667 27.0331L26.6667 23.9997H24.8333V16.6664C24.8333 16.2664 24.7111 15.9442 24.4667 15.6997C24.2222 15.4553 23.9 15.3331 23.5 15.3331C23.1 15.3331 22.7778 15.4553 22.5333 15.6997C22.2889 15.9442 22.1667 16.2664 22.1667 16.6664V29.9664L17.0333 28.8664L16.2667 29.6331L21.9667 35.3331ZM31.3333 35.3331H21.9667H31.3333Z" fill="#7EB101"/>
</svg>
